<svg width="16" height="16" viewBox="0 0 16 16" fill="none" xmlns="http://www.w3.org/2000/svg">
<path opacity="0.4" d="M4.98657 12.2336L7.05324 13.8336C7.31991 14.1003 7.91991 14.2336 8.31991 14.2336H10.8532C11.6532 14.2336 12.5199 13.6336 12.7199 12.8336L14.3199 7.96697C14.6532 7.03364 14.0532 6.23364 13.0532 6.23364H10.3866C9.98657 6.23364 9.65324 5.9003 9.71991 5.43364L10.0532 3.3003C10.1866 2.7003 9.78657 2.03364 9.18657 1.83364C8.65324 1.63364 7.98657 1.9003 7.71991 2.3003L4.98657 6.36697" stroke="#6BAFB8" stroke-width="1.5" stroke-miterlimit="10"/>
<path d="M1.58667 12.2336V5.70026C1.58667 4.76693 1.98667 4.43359 2.92 4.43359H3.58667C4.52 4.43359 4.92 4.76693 4.92 5.70026V12.2336C4.92 13.1669 4.52 13.5003 3.58667 13.5003H2.92C1.98667 13.5003 1.58667 13.1669 1.58667 12.2336Z" stroke="#6BAFB8" stroke-width="1.5" stroke-linecap="round" stroke-linejoin="round"/>
</svg>
